<svg xmlns="http://www.w3.org/2000/svg" xmlns:xlink="http://www.w3.org/1999/xlink" viewBox="0,0,256,256" width="24px" height="24px" fill-rule="nonzero"><g fill-opacity="0" fill="#dddddd" fill-rule="nonzero" stroke="none" stroke-width="1" stroke-linecap="butt" stroke-linejoin="miter" stroke-miterlimit="10" stroke-dasharray="" stroke-dashoffset="0" font-family="none" font-weight="none" font-size="none" text-anchor="none" style="mix-blend-mode: normal"><path d="M0,256v-256h256v256z" id="bgRectangle"></path></g><g fill="#000000" fill-rule="nonzero" stroke="none" stroke-width="1" stroke-linecap="butt" stroke-linejoin="miter" stroke-miterlimit="10" stroke-dasharray="" stroke-dashoffset="0" font-family="none" font-weight="none" font-size="none" text-anchor="none" style="mix-blend-mode: normal"><g transform="scale(2 2)"><path d="M32,122h64c7.2,0 13,-5.8 13,-13v-80c0,-6.1 -2.4,-11.9 -6.7,-16.3c-4.3,-4.4 -10.2,-6.7 -16.3,-6.7h-54c-7.2,0 -13,5.8 -13,13v90c0,7.2 5.8,13 13,13zM86.1,92h-44c-1.7,0 -3,-1.3 -3,-3c0,-1.7 1.3,-3 3,-3h44c1.7,0 3,1.3 3,3c0,1.7 -1.3,3 -3,3zM98,17c2.5,2.5 4.1,5.6 4.7,9h-6.7c-3.9,0 -7,-3.1 -7,-7v-6.7c3.4,0.6 6.5,2.2 9,4.7zM41.9,56h44c1.7,0 3,1.3 3,3c0,1.7 -1.3,3 -3,3h-44c-1.7,0 -3,-1.3 -3,-3c0,-1.7 1.3,-3 3,-3zM41.9,71h44c1.7,0 3,1.3 3,3c0,1.7 -1.3,3 -3,3h-44c-1.7,0 -3,-1.3 -3,-3c0,-1.7 1.3,-3 3,-3z"></path></g></g></svg>